<svg xmlns="http://www.w3.org/2000/svg" xmlns:xlink="http://www.w3.org/1999/xlink" width="120" height="76" viewBox="0 0 120 76"><defs><linearGradient id="a" x1="4.745" y1="0.5" x2="-2.155" y2="0.5" gradientUnits="objectBoundingBox"><stop offset="0" stop-color="#3b28cc"/><stop offset="1" stop-color="#3f8efc"/></linearGradient><linearGradient id="b" x1="1.039" y1="0.5" x2="-0.089" y2="0.5" xlink:href="#a"/></defs><g transform="translate(-221.42 -334.719)"><g transform="translate(221.42 397.119)"><path d="M226.127,672.084h3.483l4.726,13.3H230.72l-.784-2.38h-4.21l-.765,2.38h-3.54Zm2.947,8.2-1.244-3.872-1.244,3.872Z" transform="translate(-221.42 -671.971)" fill="#fff"/><path d="M288.784,672.49h5.262a5.488,5.488,0,0,1,4.018,1.341,4.161,4.161,0,0,1,1.167,3.1v.095a4.061,4.061,0,0,1-2.392,3.891l2.755,4.8h-3.884l-2.277-4.1h-1.225v4.1h-3.425Zm5.128,6.422a1.652,1.652,0,0,0,1.856-1.719v-.038c0-1.133-.727-1.7-1.875-1.7h-1.684v3.457Z" transform="translate(-276.097 -672.301)" fill="#fff"/><path d="M344.5,672.084h3.483l4.726,13.3h-3.617L348.3,683h-4.21l-.765,2.38h-3.54Zm2.947,8.2-1.244-3.872-1.244,3.872Z" transform="translate(-317.496 -671.971)" fill="#fff"/><path d="M407.152,672.49H412.7a4.967,4.967,0,0,1,3.636,1.171,2.893,2.893,0,0,1,.88,2.191v.075a3.05,3.05,0,0,1-1.99,2.909,3.166,3.166,0,0,1,2.449,3.136v.076c0,2.267-1.8,3.664-4.956,3.664h-5.568Zm6.659,4.061c0-.793-.574-1.228-1.607-1.228h-1.7V677.8h1.646c1.052,0,1.665-.416,1.665-1.228Zm-1.3,3.74H410.5v2.588h2.028c1.072,0,1.7-.472,1.7-1.284v-.019C414.232,680.8,413.639,680.291,412.51,680.291Z" transform="translate(-372.172 -672.301)" fill="#fff"/><path d="M463.474,672.084h3.483l4.727,13.3h-3.617l-.785-2.38h-4.21l-.765,2.38h-3.54Zm2.947,8.2-1.244-3.872-1.244,3.872Z" transform="translate(-414.066 -671.971)" fill="#fff"/><path d="M529.382,672.49h3.789c3.731,0,6.3,2.644,6.3,6.536v.132c0,3.872-2.564,6.555-6.3,6.555h-3.789Zm1.435,1.3v10.616h2.315c2.928,0,4.841-2.1,4.841-5.232v-.132c0-3.136-1.914-5.251-4.841-5.251Z" transform="translate(-471.382 -672.301)" fill="#fff"/><path d="M590.446,672.49h8.171v1.3h-6.736V678.4h6.047v1.285h-6.047v4.722h6.831v1.3h-8.266Z" transform="translate(-520.945 -672.301)" fill="#fff"/><path d="M641.146,672.49h4.573a4.859,4.859,0,0,1,3.521,1.228,3.738,3.738,0,0,1,1.053,2.72v.038a3.78,3.78,0,0,1-3.177,3.815l3.6,5.421h-1.722l-3.368-5.138h-3.043v5.138h-1.435Zm4.324,6.8c2.182,0,3.387-1.077,3.387-2.758v-.038c0-1.738-1.224-2.7-3.234-2.7h-3.043v5.5Z" transform="translate(-562.097 -672.301)" fill="#fff"/><path d="M693.3,680.386l-4.707-7.9h1.665l3.789,6.46,3.789-6.46h1.626l-4.707,7.858v5.365H693.3Z" transform="translate(-600.609 -672.301)" fill="#fff"/><path d="M740.645,672.084h1.416l5.109,13.3h-1.531l-1.3-3.476h-6.028l-1.3,3.476h-1.473Zm3.215,8.538-2.526-6.705-2.545,6.705Z" transform="translate(-638.71 -671.971)" fill="#fff"/><path d="M796.7,683.2l.9-1.077a5.35,5.35,0,0,0,3.77,1.644c1.607,0,2.679-.963,2.679-2.229v-.019c0-1.1-.536-1.795-2.966-2.645-2.775-1.02-3.865-2-3.865-3.872v-.038c0-1.983,1.684-3.494,4.038-3.494a5.86,5.86,0,0,1,4.018,1.492l-.861,1.1a4.836,4.836,0,0,0-3.215-1.285,2.248,2.248,0,0,0-2.526,2.059v.038c0,1.152.593,1.813,3.119,2.72,2.717,1,3.712,2.078,3.712,3.835v.038c0,2.115-1.76,3.608-4.152,3.608A6.619,6.619,0,0,1,796.7,683.2Z" transform="translate(-688.357 -671.474)" fill="#fff"/><path d="M850.959,672.49h1.435v13.222h-1.435Z" transform="translate(-732.394 -672.301)" fill="#fff"/></g><g transform="translate(221.42 334.719)"><path d="M400.3,519.055a9.8,9.8,0,0,0-2.659,19.4h3.172a9.793,9.793,0,0,0-.513-19.4Z" transform="translate(-357.789 -484.459)" fill="url(#a)"/><path d="M341.42,362.373a27.017,27.017,0,0,1-27.035,27H272.954a14.039,14.039,0,0,0,1.737-2.213,5.985,5.985,0,0,1,5.055-2.785h2.142a2.553,2.553,0,0,0,2.36-1.58L289.92,369a6.44,6.44,0,0,0-.4-5.7l-4.786-8.188a5.65,5.65,0,0,0-4.191-2.757l-35.863-4.4a14.563,14.563,0,0,1-5.911-2.084L223.86,336.6a14.859,14.859,0,0,0-2.44-1.221c.116-.007.233-.009.35-.009h92.615A27.017,27.017,0,0,1,341.42,362.373Z" transform="translate(-221.42 -335.373)" fill="url(#b)"/></g></g></svg>