<?xml version="1.0" encoding="UTF-8"?>
<!DOCTYPE svg PUBLIC "-//W3C//DTD SVG 1.1//EN" "http://www.w3.org/Graphics/SVG/1.1/DTD/svg11.dtd">
<!-- Creator: CorelDRAW X7 -->
<svg xmlns="http://www.w3.org/2000/svg" xml:space="preserve" width="68.3779mm" height="22.8278mm" version="1.1" style="shape-rendering:geometricPrecision; text-rendering:geometricPrecision; image-rendering:optimizeQuality; fill-rule:evenodd; clip-rule:evenodd"
viewBox="0 0 7145 2385"
 xmlns:xlink="http://www.w3.org/1999/xlink">
 <defs>
  <style type="text/css">
   <![CDATA[
    .fil1 {fill:#FF2D2B}
    .fil0 {fill:#FF2D2B;fill-rule:nonzero}
   ]]>
  </style>
 </defs>
 <g id="Layer_x0020_1">
  <metadata id="CorelCorpID_0Corel-Layer"/>
  <path class="fil0" d="M2867 515l0 552c-65,-95 -168,-152 -310,-152 -252,0 -446,196 -446,488 0,288 194,480 446,480 144,0 248,-59 314,-158l5 141 227 0 0 -1351 -236 0zm-256 1165c-154,0 -256,-112 -256,-280 0,-170 102,-284 256,-284 153,0 256,114 256,282 0,170 -103,282 -256,282zm1610 -296c0,-282 -187,-469 -465,-469 -281,0 -466,196 -466,490 0,287 190,478 476,478 177,0 324,-80 407,-204l-182 -92c-55,67 -133,111 -229,111 -136,0 -206,-83 -223,-215l675 0c4,-28 7,-66 7,-99zm-465 -284c126,0 200,82 218,224l-435 0c19,-142 92,-224 217,-224zm876 -43l-231 -125 0 934 236 0 0 -501c0,-140 128,-234 322,-234l15 -216c-150,0 -268,50 -342,142zm1101 -125l0 549c0,120 -80,199 -199,199 -122,0 -203,-79 -203,-199l0 -549 -235 0 0 586c0,219 143,365 355,365 114,0 214,-43 282,-125l0 18c0,173 -113,285 -279,285 -119,0 -222,-29 -315,-100l-52 185c95,78 225,118 372,118 307,0 509,-192 509,-487l0 -845 -235 0zm1185 0l-5 141c-66,-99 -170,-158 -313,-158 -253,0 -447,196 -447,488 0,288 194,480 447,480 143,0 247,-59 313,-158l5 141 227 0 0 -934 -227 0zm-264 748c-155,0 -256,-112 -256,-280 0,-170 101,-284 256,-284 152,0 255,114 255,282 0,170 -103,282 -255,282z"/>
  <path class="fil1" d="M563 0c658,17 1187,544 1187,1193 0,648 -529,1176 -1187,1192l0 -511c369,-17 663,-315 663,-681 0,-366 -294,-665 -663,-682l0 -511z"/>
  <polygon class="fil1" points="563,511 563,1874 0,1874 "/>
 </g>
</svg>
